HIERARCHY
ROOT SpineBase
{
  OFFSET 0.000000 0.000000 0.000000
  CHANNELS 6 Xposition Yposition Zposition Zrotation Xrotation Yrotation
  JOINT SpineMid
  {
    OFFSET 0.000000 28.619004 0.000000
    CHANNELS 3 Zrotation Xrotation Yrotation
    JOINT SpineShoulder
    {
      OFFSET 0.012074 21.312791 -0.813453
      CHANNELS 3 Zrotation Xrotation Yrotation
      JOINT Neck
      {
        OFFSET 0.004583 7.076690 -0.574452
        CHANNELS 3 Zrotation Xrotation Yrotation
        JOINT Head
        {
          OFFSET -2.474061 8.832673 6.659554
          CHANNELS 3 Zrotation Xrotation Yrotation
          End Site
          {
            OFFSET 0 0 0
          }
        }
      }
      JOINT ShoulderLeft
      {
        OFFSET -11.263749 -9.979725 6.151827
        CHANNELS 3 Zrotation Xrotation Yrotation
        JOINT ElbowLeft
        {
          OFFSET -0.917746 -20.409489 -4.249834
          CHANNELS 3 Zrotation Xrotation Yrotation
          JOINT WristLeft
          {
            OFFSET -2.704158 -26.106953 4.013237
            CHANNELS 3 Zrotation Xrotation Yrotation
            JOINT HandLeft
            {
              OFFSET 4.315786 -12.405677 1.819641
              CHANNELS 3 Zrotation Xrotation Yrotation
              JOINT HandTipLeft
              {
                OFFSET -1.926897 -3.095669 1.355409
                CHANNELS 3 Zrotation Xrotation Yrotation
                End Site
                {
                  OFFSET 0 0 0
                }
              }
              JOINT ThumbLeft
              {
                OFFSET -1.395128 -1.743108 -0.416017
                CHANNELS 3 Zrotation Xrotation Yrotation
                End Site
                {
                  OFFSET 0 0 0
                }
              }
            }
          }
        }
      }
      JOINT ShoulderRight
      {
        OFFSET 6.370081 -2.958917 -8.326606
        CHANNELS 3 Zrotation Xrotation Yrotation
        JOINT ElbowRight
        {
          OFFSET 1.863419 -22.600426 -5.727751
          CHANNELS 3 Zrotation Xrotation Yrotation
          JOINT WristRight
          {
            OFFSET -4.760232 -23.922314 -4.553208
            CHANNELS 3 Zrotation Xrotation Yrotation
            JOINT HandRight
            {
              OFFSET -0.125761 -7.297557 0.372980
              CHANNELS 3 Zrotation Xrotation Yrotation
              JOINT HandTipRight
              {
                OFFSET -1.776909 -6.853558 -1.547275
                CHANNELS 3 Zrotation Xrotation Yrotation
                End Site
                {
                  OFFSET 0 0 0
                }
              }
              JOINT ThumbRight
              {
                OFFSET -4.986731 2.415610 4.105001
                CHANNELS 3 Zrotation Xrotation Yrotation
                End Site
                {
                  OFFSET 0 0 0
                }
              }
            }
          }
        }
      }
    }
  }
  JOINT HipLeft
  {
    OFFSET -4.007646 -0.228302 0.003860
    CHANNELS 3 Zrotation Xrotation Yrotation
    JOINT KneeLeft
    {
      OFFSET 1.111099 -43.766525 7.748293
      CHANNELS 3 Zrotation Xrotation Yrotation
      JOINT AnkleLeft
      {
        OFFSET 9.695396 -29.016209 -2.349355
        CHANNELS 3 Zrotation Xrotation Yrotation
        JOINT FootLeft
        {
          OFFSET 6.737777 -2.079791 -9.690618
          CHANNELS 3 Zrotation Xrotation Yrotation
          End Site
          {
            OFFSET 0 0 0
          }
        }
      }
    }
  }
  JOINT HipRight
  {
    OFFSET 4.422361 2.463791 -6.294042
    CHANNELS 3 Zrotation Xrotation Yrotation
    JOINT KneeRight
    {
      OFFSET 5.618331 -38.717870 -1.972878
      CHANNELS 3 Zrotation Xrotation Yrotation
      JOINT AnkleRight
      {
        OFFSET 4.374213 -31.374285 4.003285
        CHANNELS 3 Zrotation Xrotation Yrotation
        JOINT FootRight
        {
          OFFSET -5.083239 -2.431749 -9.370204
          CHANNELS 3 Zrotation Xrotation Yrotation
          End Site
          {
            OFFSET 0 0 0
          }
        }
      }
    }
  }
}
MOTION
Frames: 16
Frame Time: 0.033333
-27.156922 75.374618 326.310326 -0.000000 0.000000 36.762729 0.000000 0.000000 -36.762729 -0.000000 0.000000 0.000000 -0.000000 0.000000 0.000000 0.000000 0.000000 0.000000 -0.000000 0.000000 0.000000 -0.000000 0.000000 0.000000 -0.000000 0.000000 0.000000 -0.000000 0.000000 0.000000 0.000000 0.000000 0.000000 0.000000 0.000000 0.000000 -0.000000 0.000000 0.000000 -0.000000 0.000000 0.000000 -0.000000 0.000000 0.000000 -0.000000 0.000000 0.000000 0.000000 0.000000 0.000000 0.000000 0.000000 0.000000 0.000000 0.000000 -36.762729 -0.000000 0.000000 0.000000 -0.000000 0.000000 0.000000 0.000000 0.000000 0.000000 0.000000 0.000000 -36.762729 -0.000000 0.000000 0.000000 -0.000000 0.000000 0.000000 0.000000 0.000000 0.000000
-27.071408 75.378175 326.204257 0.042555 0.085398 36.632185 -0.085105 -0.043139 -36.632249 -0.000000 0.000000 0.000000 0.716860 0.317004 -0.451949 0.000000 0.000000 0.000000 -0.000000 0.000000 0.000000 2.219609 3.279143 -0.062440 -2.933408 -4.411626 -0.611452 14.338156 14.501854 -4.222957 0.000000 0.000000 0.000000 0.000000 0.000000 0.000000 -0.000000 0.000000 0.000000 0.705562 0.485828 -0.234057 -1.766327 -2.170507 0.177710 1.212437 8.223138 -1.712076 0.000000 0.000000 0.000000 0.000000 0.000000 0.000000 -0.085105 -0.043139 -36.632249 -0.000000 0.000000 0.000000 -1.857687 -2.234060 1.612973 0.000000 0.000000 0.000000 -0.085105 -0.043139 -36.632249 -0.000000 0.000000 0.000000 1.001553 -2.127988 0.668029 0.000000 0.000000 0.000000
-26.998245 75.381159 326.126619 0.096811 0.140242 36.459229 -0.161202 -0.055264 -36.459425 -0.000000 0.000000 0.000000 1.194250 0.454870 -0.773205 0.000000 0.000000 0.000000 -0.074583 -0.924787 0.056607 4.675780 7.576697 -0.388389 -6.158598 -9.003596 -1.539992 27.878849 25.475992 -10.757614 0.000000 0.000000 0.000000 0.000000 0.000000 0.000000 -0.000000 0.000000 0.000000 1.317189 0.889622 -0.438322 -3.349416 -4.098725 0.278641 2.474139 14.828650 -3.124881 0.000000 0.000000 0.000000 0.000000 0.000000 0.000000 -0.161202 -0.055264 -36.459425 -0.000000 0.000000 0.000000 -3.401084 -4.143265 3.127470 0.000000 0.000000 0.000000 -0.161202 -0.055264 -36.459425 0.352284 0.717015 0.142767 1.502782 -4.649937 1.186822 0.000000 0.000000 0.000000
-26.937434 75.383568 326.077414 0.162872 0.164745 36.243954 -0.228758 -0.036573 -36.244261 -0.000000 0.000000 0.000000 1.419563 0.412358 -0.954044 0.000000 0.000000 0.000000 -0.087095 -1.148765 0.069062 7.168722 11.147100 -0.800856 -9.654521 -13.586574 -2.812561 39.458402 32.539389 -17.599877 0.000000 0.000000 0.000000 0.000000 0.000000 0.000000 -0.000000 0.000000 0.000000 1.816182 1.199065 -0.604019 -4.749627 -5.786402 0.311896 3.706719 19.842334 -4.226658 0.000000 0.000000 0.000000 0.000000 0.000000 0.000000 -0.228758 -0.036573 -36.244261 -0.000000 0.000000 0.000000 -4.610053 -5.659859 4.554207 0.000000 0.000000 0.000000 -1.041549 -0.336083 -36.327387 0.971244 1.725471 0.269898 1.996802 -6.271820 1.704154 0.000000 0.000000 0.000000
-26.888975 75.385404 326.056641 0.240900 0.158967 35.985848 -0.288333 0.012920 -35.986150 -0.000000 0.000000 0.000000 1.387915 0.191105 -0.990649 0.000000 0.000000 0.000000 -0.083110 -1.212289 0.071096 9.665142 14.380842 -1.318690 -13.347440 -17.894150 -4.398507 48.673950 36.792763 -23.464589 0.000000 0.000000 0.000000 0.000000 0.000000 0.000000 0.951273 0.015960 -0.239736 1.227659 1.391933 -0.482726 -5.965096 -7.234137 0.284987 4.849074 23.363429 -5.002156 0.000000 0.000000 0.000000 0.000000 0.000000 0.000000 -0.288333 0.012920 -35.986150 -0.000000 0.000000 0.000000 -5.471535 -6.726150 5.903928 0.000000 0.000000 0.000000 -1.239093 -0.317359 -36.079314 1.188061 2.065760 0.322333 2.223262 -7.263961 2.084253 0.000000 0.000000 0.000000
-26.852867 75.386666 326.064301 0.331116 0.122821 35.683795 -0.340592 0.093383 -35.683872 -0.000000 0.000000 0.000000 1.102248 -0.204620 -0.885221 0.000000 0.000000 0.000000 -0.062534 -1.114206 0.062642 12.054663 17.124057 -1.877447 -17.068594 -21.589883 -6.162245 55.438957 39.178896 -27.690996 0.000000 0.000000 0.000000 0.000000 0.000000 0.000000 1.135179 -0.117404 -0.296055 1.263531 1.614504 -0.493967 -6.993071 -8.442253 0.204285 5.858902 25.492193 -5.434488 0.000000 0.000000 0.000000 0.000000 0.000000 0.000000 -0.340592 0.093383 -35.683872 -0.000000 0.000000 0.000000 -5.977961 -7.292553 7.183857 0.000000 0.000000 0.000000 -1.363651 -0.232660 -35.777602 1.352084 2.288585 0.358122 2.137391 -7.559565 2.279938 0.000000 0.000000 0.000000
-26.840408 75.392406 326.129681 0.356213 0.023155 35.604411 -0.303102 0.188555 -35.603984 -0.000000 0.000000 0.000000 0.789839 -0.753646 -0.803851 0.000000 0.000000 0.000000 -0.175887 -0.979954 0.079323 15.398692 20.408928 -2.764247 -19.845546 -25.765307 -7.493251 57.181345 39.749808 -28.707943 0.000000 0.000000 0.000000 0.000000 0.000000 0.000000 1.304405 -0.330662 -0.354022 0.969367 1.735671 -0.393873 -7.858691 -9.630454 -0.001281 6.993394 25.374578 -5.264278 0.000000 0.000000 0.000000 0.000000 0.000000 0.000000 -0.303102 0.188555 -35.603984 -0.000000 0.000000 0.000000 -5.602314 -6.045664 10.424457 0.000000 0.000000 0.000000 -1.311273 -0.114587 -35.691598 1.371043 2.427538 0.378378 1.550299 -6.675446 2.032945 0.000000 0.000000 0.000000
-26.825125 75.402195 326.198232 0.458754 -0.059895 35.134345 -0.340706 0.312991 -35.133175 -0.000000 0.000000 0.000000 0.240227 -1.522069 -0.610040 0.000000 0.000000 0.000000 -0.000000 0.000000 0.000000 17.611062 21.859074 -3.133648 -20.739032 -26.803161 -7.136463 47.691126 33.546488 -17.305215 0.000000 0.000000 0.000000 0.000000 0.000000 0.000000 1.399854 -0.625766 -0.398890 0.543193 1.722743 -0.216272 -8.001039 -10.136906 -0.179885 8.216618 23.206184 -4.955177 0.000000 0.000000 0.000000 0.000000 0.000000 0.000000 -0.340706 0.312991 -35.133175 -0.000000 0.000000 0.000000 -5.535700 -5.560215 12.135229 0.000000 0.000000 0.000000 -1.257735 0.047409 -35.208042 1.246788 2.385643 0.368202 -0.324252 -2.977925 1.247637 0.000000 0.000000 0.000000
-26.812770 75.473674 326.277812 0.632568 -0.180651 34.840671 0.401194 0.128579 -34.808553 -0.057941 0.175095 0.032038 -1.603890 -2.664922 -0.165598 0.000000 0.000000 0.000000 -0.830731 -0.328169 -0.069586 18.705178 22.483243 -3.368628 -26.171648 -27.221718 -10.060609 49.467709 30.248421 -10.525645 0.000000 0.000000 0.000000 0.000000 0.000000 0.000000 0.618360 -1.268356 -0.494745 0.473867 1.831338 -0.136172 -9.514781 -10.296863 -0.438610 8.233270 24.041280 -4.404231 0.000000 0.000000 0.000000 0.000000 0.000000 0.000000 -0.415987 0.509642 -34.837824 -0.702316 0.406725 0.195605 -4.648737 -5.508512 12.228008 0.000000 0.000000 0.000000 -1.262559 0.294469 -34.898606 1.442471 2.362624 0.389247 -0.314831 -3.538056 1.403339 0.000000 0.000000 0.000000
-26.821180 75.476473 326.356651 0.827088 -0.277896 34.159413 0.587719 0.175370 -34.116412 -0.134488 0.270599 0.038370 -2.809391 -3.244228 0.383441 0.000000 0.000000 0.000000 -1.027694 0.423577 -0.142514 17.366769 20.104642 -2.532364 -27.506059 -27.788641 -11.722345 46.326211 28.994930 -6.580058 0.000000 0.000000 0.000000 0.000000 0.000000 0.000000 0.542297 -1.753946 -0.579039 0.067516 1.593080 0.107398 -9.489460 -9.977214 -0.550539 9.608566 20.752930 -4.105478 0.000000 0.000000 0.000000 0.000000 0.000000 0.000000 -1.344897 0.119722 -34.234512 -0.297115 1.698553 0.406666 -4.347653 -5.391399 11.293285 0.000000 0.000000 0.000000 -0.528399 0.694337 -34.154205 0.983668 1.682566 0.345906 -0.776264 -2.872455 1.337414 0.000000 0.000000 0.000000
-26.840171 75.363482 326.413170 1.051493 -0.336510 33.220910 0.763269 0.237831 -33.167181 -0.174794 0.388349 0.047511 -4.139658 -3.949150 0.948468 0.000000 0.000000 0.000000 -1.038619 1.034561 -0.268820 17.251382 18.731627 -2.006622 -30.763616 -25.854549 -12.900681 51.932145 31.458928 -10.258668 0.000000 0.000000 0.000000 0.000000 0.000000 0.000000 0.370514 -2.168242 -0.647109 -0.212462 1.700847 0.211198 -9.471316 -10.333822 -0.623301 9.595429 20.542413 -3.919362 0.000000 0.000000 0.000000 0.000000 0.000000 0.000000 -1.776864 0.155181 -33.324906 0.185157 2.430072 0.571331 -4.997871 -6.960871 8.512130 0.000000 0.000000 0.000000 -0.695356 0.857543 -33.212618 1.084467 1.578868 0.343726 1.004768 -6.818070 3.307254 0.000000 0.000000 0.000000
-26.860786 75.170666 326.454851 1.257581 -0.375848 32.066358 0.897184 0.312853 -32.004284 -0.231815 0.493033 0.052788 -5.057940 -4.298248 1.365835 0.000000 0.000000 0.000000 -0.937161 1.644830 -0.400377 16.494626 17.880865 -1.630231 -31.237555 -25.755883 -13.240983 61.091709 36.203750 -18.298222 0.000000 0.000000 0.000000 0.000000 0.000000 0.000000 0.136351 -2.370134 -0.665602 -0.473795 0.880866 0.445824 -7.590118 -9.554829 -0.507403 7.563049 14.086040 -1.962953 0.000000 0.000000 0.000000 0.000000 0.000000 0.000000 -2.361132 0.041746 -32.217033 0.729375 3.288105 0.733479 -4.825919 -7.354078 4.722991 0.000000 0.000000 0.000000 -0.866304 0.986073 -32.054778 1.154386 1.374970 0.325198 1.446577 -7.842926 4.455042 0.000000 0.000000 0.000000
-26.891431 74.933171 326.464941 1.469825 -0.335261 31.121194 0.981766 0.402821 -31.053169 -0.279873 0.601074 0.056468 -5.670902 -4.419416 1.668794 0.000000 0.000000 0.000000 -0.781739 1.995568 -0.526358 15.536466 17.860409 -1.514071 -33.218410 -31.216919 -16.949444 59.030366 37.575485 -15.516726 0.000000 0.000000 0.000000 0.000000 0.000000 0.000000 -0.014789 -2.418344 -0.676594 -0.754968 0.273672 0.574529 -5.634956 -9.240597 -0.376333 6.900546 9.957971 -1.209777 0.000000 0.000000 0.000000 0.000000 0.000000 0.000000 -2.757871 0.267795 -31.308556 1.627947 3.385547 0.747886 -4.510041 -6.920045 0.797342 0.000000 0.000000 0.000000 -1.664665 2.072017 -30.954805 2.439406 0.400140 0.188394 1.344830 -8.044507 5.546288 0.000000 0.000000 0.000000
-26.937828 74.663196 326.423847 1.602226 -0.185002 29.950662 0.987297 0.479074 -29.881603 -0.346603 0.661253 0.053844 -5.678754 -4.385218 1.703643 0.000000 0.000000 0.000000 -0.601930 2.042911 -0.595703 14.389657 18.683126 -1.684685 -32.312025 -35.663207 -18.430544 54.282749 37.087470 -11.488153 0.000000 0.000000 0.000000 0.000000 0.000000 0.000000 0.042948 -2.272145 -0.672531 -1.068562 -0.320707 0.648008 -3.881320 -8.667607 -0.250594 4.508073 6.554545 0.039174 0.000000 0.000000 0.000000 0.000000 0.000000 0.000000 -2.799348 1.159964 -30.172176 1.399772 0.582931 0.255652 -2.788705 -5.018308 -4.730930 0.000000 0.000000 0.000000 -2.126664 2.670252 -29.675414 3.468028 -0.549393 0.121874 0.610659 -7.486942 6.479621 0.000000 0.000000 0.000000
-27.000926 74.374207 326.367741 1.639548 0.012330 28.978564 0.896878 0.511939 -28.912736 -0.398911 0.629721 0.047894 -4.823666 -3.685245 1.408239 0.000000 0.000000 0.000000 -0.426824 2.102633 -0.614003 13.901664 20.232841 -2.065727 -27.472761 -35.598626 -14.866182 53.126500 36.899299 -14.036121 0.000000 0.000000 0.000000 0.000000 0.000000 0.000000 0.252150 -1.764612 -0.643082 -1.284624 -1.209710 0.691336 -2.357219 -7.005754 -0.152676 2.078755 2.120972 1.328038 0.000000 0.000000 0.000000 0.000000 0.000000 0.000000 -2.747279 2.266309 -29.247173 2.655629 -1.591532 -0.038300 -4.375430 -4.814559 -2.315738 0.000000 0.000000 0.000000 -2.577603 3.213260 -28.589175 4.639642 -1.464617 0.089931 -0.621292 -6.316004 7.247813 0.000000 0.000000 0.000000
-27.135384 74.078200 326.284827 1.541862 0.100475 27.642430 0.701577 0.528763 -27.584648 -0.432596 0.511146 0.037006 -2.943563 -2.379509 0.642377 0.000000 0.000000 0.000000 -0.580079 1.730921 -0.467294 14.124345 22.385261 -2.745487 -18.707146 -35.336627 -8.560966 52.462455 39.365244 -23.472916 0.000000 0.000000 0.000000 0.000000 0.000000 0.000000 0.776722 -0.947197 -0.625848 -1.659974 -2.045954 0.740299 -1.523077 -5.215239 -0.154438 0.768736 3.177375 0.867842 0.000000 0.000000 0.000000 0.000000 0.000000 0.000000 -2.224328 3.967167 -27.940983 2.898790 -5.814847 -0.700698 -3.001146 -1.395345 -3.472775 0.000000 0.000000 0.000000 -2.835077 3.874386 -27.115939 5.874810 -2.521956 0.080311 -2.261156 -4.504482 7.646067 0.000000 0.000000 0.000000
